<?xml version="1.0" standalone="no"?>
<!DOCTYPE svg PUBLIC "-//W3C//DTD SVG 20010904//EN"
 "http://www.w3.org/TR/2001/REC-SVG-20010904/DTD/svg10.dtd">
<svg version="1.0" xmlns="http://www.w3.org/2000/svg"
 width="485.000000pt" height="375.000000pt" viewBox="0 0 485.000000 375.000000"
 preserveAspectRatio="xMidYMid meet">

<g transform="translate(0.000000,375.000000) scale(0.100000,-0.100000)"
fill="#000000" stroke="none">
<path d="M3290 1878 c-47 -25 -61 -81 -36 -142 12 -28 22 -35 64 -46 66 -15
139 -4 169 26 32 33 32 102 -1 141 -21 25 -31 28 -97 31 -47 2 -83 -2 -99 -10z"/>
<path d="M650 1460 l0 -360 110 0 110 0 0 207 0 207 66 -129 c36 -72 84 -165
107 -207 l42 -78 138 0 137 0 0 360 0 360 -111 0 -111 0 3 -205 c2 -113 2
-205 -1 -204 -3 0 -51 92 -107 202 l-101 202 -141 3 -141 3 0 -361z"/>
<path d="M1690 1649 c-75 -8 -138 -38 -182 -87 -45 -49 -63 -105 -62 -192 1
-99 19 -148 73 -200 59 -58 124 -80 237 -80 107 0 178 25 228 80 57 63 51 72
-59 100 l-94 24 -24 -22 c-31 -29 -72 -28 -102 3 -14 13 -25 29 -25 35 0 6 60
10 174 10 l174 0 7 29 c9 42 -11 137 -39 186 -52 88 -165 130 -306 114z m94
-181 c32 -45 22 -58 -44 -58 -63 0 -68 5 -49 43 23 43 68 50 93 15z"/>
<path d="M3144 1654 c-5 -1 -21 -5 -35 -8 -34 -7 -77 -51 -100 -101 l-18 -40
0 68 -1 67 -115 0 -115 0 0 -270 0 -270 124 0 124 0 4 150 c3 136 5 151 24
170 26 26 78 39 121 29 39 -8 39 -7 48 112 l7 86 -29 5 c-17 2 -34 3 -39 2z"/>
<path d="M3971 1648 c-55 -9 -84 -28 -121 -80 l-30 -41 0 56 0 57 -115 0 -115
0 0 -270 0 -270 125 0 125 0 0 158 c0 175 8 205 53 210 40 5 47 -26 47 -209
l0 -159 126 0 126 0 -4 218 c-3 195 -5 220 -23 251 -40 67 -107 95 -194 79z"/>
<path d="M2257 1632 c-62 -22 -112 -63 -140 -115 -19 -36 -22 -57 -22 -147 0
-96 2 -109 27 -151 52 -88 136 -129 267 -129 177 0 272 70 300 222 27 150 -45
285 -173 323 -67 20 -199 19 -259 -3z m167 -158 c12 -12 16 -37 16 -104 0 -67
-4 -92 -16 -104 -20 -21 -43 -20 -66 1 -15 13 -18 32 -18 104 0 93 11 119 50
119 10 0 26 -7 34 -16z"/>
<path d="M3250 1370 l0 -270 125 0 125 0 0 270 0 270 -125 0 -125 0 0 -270z"/>
</g>
</svg>
